<mxfile host="app.diagrams.net" agent="Mozilla/5.0 (Windows NT 10.0; Win64; x64) AppleWebKit/537.36 (KHTML, like Gecko) Chrome/140.0.0.0 Safari/537.36" version="28.2.1">
  <diagram name="Page-1" id="X22H1fyRm7d7cOocbhD_">
    <mxGraphModel grid="0" page="0" gridSize="10" guides="1" tooltips="1" connect="1" arrows="1" fold="1" pageScale="1" pageWidth="827" pageHeight="1169" math="0" shadow="1">
      <root>
        <mxCell id="0" />
        <mxCell id="1" parent="0" />
        <mxCell id="eXIGQxcMQj50jVCJq_CA-1" value="" style="edgeStyle=orthogonalEdgeStyle;rounded=0;orthogonalLoop=1;jettySize=auto;html=1;labelBackgroundColor=none;strokeColor=#182E3E;fontColor=default;exitX=1;exitY=0.5;exitDx=0;exitDy=0;" edge="1" parent="1" source="lzlOlTGy8y_lj0kX5aOs-2" target="eXIGQxcMQj50jVCJq_CA-6">
          <mxGeometry relative="1" as="geometry" />
        </mxCell>
        <mxCell id="lzlOlTGy8y_lj0kX5aOs-3" style="edgeStyle=orthogonalEdgeStyle;rounded=0;orthogonalLoop=1;jettySize=auto;html=1;exitX=1;exitY=0.5;exitDx=0;exitDy=0;entryX=0;entryY=0.5;entryDx=0;entryDy=0;" edge="1" parent="1" source="eXIGQxcMQj50jVCJq_CA-2" target="lzlOlTGy8y_lj0kX5aOs-2">
          <mxGeometry relative="1" as="geometry" />
        </mxCell>
        <mxCell id="eXIGQxcMQj50jVCJq_CA-2" value="Dessiner un cube" style="rounded=0;whiteSpace=wrap;html=1;labelBackgroundColor=none;fillColor=#56517E;strokeColor=#EEEEEE;fontColor=#FFFFFF;" vertex="1" parent="1">
          <mxGeometry x="40" y="200" width="160" height="80" as="geometry" />
        </mxCell>
        <mxCell id="eXIGQxcMQj50jVCJq_CA-3" value="Contrôler la caméra" style="rounded=0;whiteSpace=wrap;html=1;labelBackgroundColor=none;fillColor=#56517E;strokeColor=#EEEEEE;fontColor=#FFFFFF;" vertex="1" parent="1">
          <mxGeometry x="982" y="200" width="160" height="80" as="geometry" />
        </mxCell>
        <mxCell id="eXIGQxcMQj50jVCJq_CA-4" value="" style="edgeStyle=orthogonalEdgeStyle;rounded=0;orthogonalLoop=1;jettySize=auto;html=1;entryX=0;entryY=0.5;entryDx=0;entryDy=0;labelBackgroundColor=none;strokeColor=#182E3E;fontColor=default;" edge="1" parent="1" source="eXIGQxcMQj50jVCJq_CA-6" target="eXIGQxcMQj50jVCJq_CA-8">
          <mxGeometry relative="1" as="geometry">
            <mxPoint x="581" y="240" as="targetPoint" />
          </mxGeometry>
        </mxCell>
        <mxCell id="eXIGQxcMQj50jVCJq_CA-5" value="Détails" style="edgeStyle=orthogonalEdgeStyle;rounded=0;orthogonalLoop=1;jettySize=auto;html=1;strokeColor=#182E3E;horizontal=0;" edge="1" parent="1" source="eXIGQxcMQj50jVCJq_CA-6" target="eXIGQxcMQj50jVCJq_CA-9">
          <mxGeometry x="-0.0045" relative="1" as="geometry">
            <mxPoint as="offset" />
          </mxGeometry>
        </mxCell>
        <mxCell id="eXIGQxcMQj50jVCJq_CA-6" value="&lt;span style=&quot;font-size: 11px;&quot;&gt;Détecter les appuis de touches&lt;/span&gt;" style="rounded=0;whiteSpace=wrap;html=1;align=center;labelBackgroundColor=none;fillColor=#56517E;strokeColor=#EEEEEE;fontColor=#FFFFFF;" vertex="1" parent="1">
          <mxGeometry x="435" y="225" width="100" height="30" as="geometry" />
        </mxCell>
        <mxCell id="eXIGQxcMQj50jVCJq_CA-7" value="" style="edgeStyle=orthogonalEdgeStyle;rounded=0;orthogonalLoop=1;jettySize=auto;html=1;exitX=1;exitY=0.5;exitDx=0;exitDy=0;labelBackgroundColor=none;strokeColor=#182E3E;fontColor=default;" edge="1" parent="1" source="88JwYsdk7pb474S3zGqt-2" target="eXIGQxcMQj50jVCJq_CA-3">
          <mxGeometry relative="1" as="geometry">
            <mxPoint x="693" y="240" as="sourcePoint" />
          </mxGeometry>
        </mxCell>
        <mxCell id="lzlOlTGy8y_lj0kX5aOs-1" style="edgeStyle=orthogonalEdgeStyle;rounded=0;orthogonalLoop=1;jettySize=auto;html=1;exitX=1;exitY=0.5;exitDx=0;exitDy=0;entryX=0;entryY=0.5;entryDx=0;entryDy=0;" edge="1" parent="1" source="eXIGQxcMQj50jVCJq_CA-8" target="88JwYsdk7pb474S3zGqt-2">
          <mxGeometry relative="1" as="geometry" />
        </mxCell>
        <mxCell id="eXIGQxcMQj50jVCJq_CA-8" value="&lt;span style=&quot;font-size: 11px;&quot;&gt;Déplacer la caméra&lt;/span&gt;" style="rounded=0;whiteSpace=wrap;html=1;align=center;labelBackgroundColor=none;fillColor=#56517E;strokeColor=#EEEEEE;fontColor=#FFFFFF;" vertex="1" parent="1">
          <mxGeometry x="631" y="225" width="100" height="30" as="geometry" />
        </mxCell>
        <mxCell id="88JwYsdk7pb474S3zGqt-1" value="" style="edgeStyle=orthogonalEdgeStyle;rounded=0;orthogonalLoop=1;jettySize=auto;html=1;endArrow=none;endFill=0;" edge="1" parent="1" source="eXIGQxcMQj50jVCJq_CA-9" target="eXIGQxcMQj50jVCJq_CA-6">
          <mxGeometry relative="1" as="geometry" />
        </mxCell>
        <mxCell id="eXIGQxcMQj50jVCJq_CA-9" value="&lt;ul&gt;&lt;li&gt;Créations d&#39;une classe KeyManager;&lt;/li&gt;&lt;li&gt;Création de classes Key physique (1 par touche);&lt;/li&gt;&lt;ul&gt;&lt;li&gt;Methode onPressed, OnReleased;&lt;/li&gt;&lt;li&gt;Attribut isPressed.&lt;/li&gt;&lt;/ul&gt;&lt;/ul&gt;" style="text;html=1;whiteSpace=wrap;overflow=hidden;rounded=0;labelBackgroundColor=none;fontColor=#000000;" vertex="1" parent="1">
          <mxGeometry x="322.5" y="450" width="325" height="100" as="geometry" />
        </mxCell>
        <mxCell id="eXIGQxcMQj50jVCJq_CA-10" value="&lt;ul&gt;&lt;li&gt;&lt;span style=&quot;background-color: transparent; color: light-dark(rgb(0, 0, 0), rgb(18, 18, 18));&quot;&gt;Selon les inputs, faire bouger la caméra (z, q, s, d, ctrl, space);&lt;/span&gt;&lt;/li&gt;&lt;li&gt;&lt;span style=&quot;background-color: transparent; color: light-dark(rgb(0, 0, 0), rgb(18, 18, 18));&quot;&gt;Création de la classe Player;&lt;/span&gt;&lt;/li&gt;&lt;li&gt;&lt;span style=&quot;background-color: transparent; color: light-dark(rgb(0, 0, 0), rgb(18, 18, 18));&quot;&gt;Création de la classe caméra, la position de la caméra est indexée sur celle du joueur;&lt;/span&gt;&lt;/li&gt;&lt;li&gt;&lt;span style=&quot;background-color: transparent; color: light-dark(rgb(0, 0, 0), rgb(18, 18, 18));&quot;&gt;La caméra est toujours centrée sur l&#39;origine du plan (0, 0, 0).&lt;/span&gt;&lt;/li&gt;&lt;/ul&gt;" style="text;html=1;whiteSpace=wrap;overflow=hidden;rounded=0;labelBackgroundColor=none;fontColor=light-dark(#000000, #121212);align=left;" vertex="1" parent="1">
          <mxGeometry x="471" y="14" width="420" height="108" as="geometry" />
        </mxCell>
        <mxCell id="eXIGQxcMQj50jVCJq_CA-11" value="Détails" style="edgeStyle=orthogonalEdgeStyle;rounded=0;orthogonalLoop=1;jettySize=auto;html=1;strokeColor=#182E3E;horizontal=0;exitX=0.5;exitY=0;exitDx=0;exitDy=0;" edge="1" parent="1" source="eXIGQxcMQj50jVCJq_CA-8" target="eXIGQxcMQj50jVCJq_CA-10">
          <mxGeometry x="-0.0045" relative="1" as="geometry">
            <mxPoint x="625" y="310" as="sourcePoint" />
            <mxPoint x="625" y="425" as="targetPoint" />
            <mxPoint as="offset" />
          </mxGeometry>
        </mxCell>
        <mxCell id="eXIGQxcMQj50jVCJq_CA-12" value="&lt;h1 style=&quot;margin-top: 0px;&quot;&gt;ROADMAP #0.0.3&lt;/h1&gt;&lt;p&gt;Contrôle de la caméra (position &amp;amp; orientation)&lt;/p&gt;" style="text;html=1;whiteSpace=wrap;overflow=hidden;rounded=0;" vertex="1" parent="1">
          <mxGeometry width="250" height="120" as="geometry" />
        </mxCell>
        <mxCell id="88JwYsdk7pb474S3zGqt-2" value="&lt;font style=&quot;font-size: 9px;&quot;&gt;Détecter les mouvements de souris&lt;/font&gt;" style="rounded=0;whiteSpace=wrap;html=1;align=center;labelBackgroundColor=none;fillColor=#56517E;strokeColor=#EEEEEE;fontColor=#FFFFFF;" vertex="1" parent="1">
          <mxGeometry x="827" y="225" width="100" height="30" as="geometry" />
        </mxCell>
        <mxCell id="88JwYsdk7pb474S3zGqt-6" value="&lt;ul&gt;&lt;li&gt;&lt;span style=&quot;background-color: transparent; color: light-dark(rgb(0, 0, 0), rgb(18, 18, 18));&quot;&gt;Changement de la sensibilité des mouvements de la souris;&lt;/span&gt;&lt;/li&gt;&lt;ul&gt;&lt;li&gt;&lt;span style=&quot;background-color: transparent; color: light-dark(rgb(0, 0, 0), rgb(18, 18, 18));&quot;&gt;Modification du vecteur de direction de la caméra;&lt;/span&gt;&lt;/li&gt;&lt;/ul&gt;&lt;li&gt;Récupération du matrice direction dans le Shader.&lt;/li&gt;&lt;/ul&gt;" style="text;html=1;whiteSpace=wrap;overflow=hidden;rounded=0;labelBackgroundColor=none;fontColor=light-dark(#000000, #121212);align=left;" vertex="1" parent="1">
          <mxGeometry x="667" y="460" width="420" height="80" as="geometry" />
        </mxCell>
        <mxCell id="88JwYsdk7pb474S3zGqt-7" value="Détails" style="edgeStyle=orthogonalEdgeStyle;rounded=0;orthogonalLoop=1;jettySize=auto;html=1;strokeColor=#182E3E;horizontal=0;exitX=0.5;exitY=1;exitDx=0;exitDy=0;entryX=0.5;entryY=0;entryDx=0;entryDy=0;" edge="1" parent="1" source="88JwYsdk7pb474S3zGqt-2" target="88JwYsdk7pb474S3zGqt-6">
          <mxGeometry x="-0.0045" relative="1" as="geometry">
            <mxPoint x="988" y="365" as="sourcePoint" />
            <mxPoint x="877" y="355" as="targetPoint" />
            <mxPoint as="offset" />
          </mxGeometry>
        </mxCell>
        <mxCell id="lzlOlTGy8y_lj0kX5aOs-4" style="edgeStyle=orthogonalEdgeStyle;rounded=0;orthogonalLoop=1;jettySize=auto;html=1;exitX=0.5;exitY=0;exitDx=0;exitDy=0;entryX=0.5;entryY=1;entryDx=0;entryDy=0;" edge="1" parent="1" source="lzlOlTGy8y_lj0kX5aOs-2" target="lzlOlTGy8y_lj0kX5aOs-5">
          <mxGeometry relative="1" as="geometry">
            <mxPoint x="317.7241379310344" y="119.15678879310349" as="targetPoint" />
          </mxGeometry>
        </mxCell>
        <mxCell id="lzlOlTGy8y_lj0kX5aOs-2" value="&lt;span style=&quot;font-size: 11px;&quot;&gt;Création d&#39;une classe Cube&lt;/span&gt;" style="rounded=0;whiteSpace=wrap;html=1;align=center;labelBackgroundColor=none;fillColor=#56517E;strokeColor=#EEEEEE;fontColor=#FFFFFF;" vertex="1" parent="1">
          <mxGeometry x="268" y="225" width="100" height="30" as="geometry" />
        </mxCell>
        <mxCell id="lzlOlTGy8y_lj0kX5aOs-5" value="&lt;ul&gt;&lt;li&gt;Création d&#39;une classe Cube;&lt;/li&gt;&lt;li&gt;Remplacement du code déjà existant;&lt;/li&gt;&lt;li&gt;Création d&#39;un second Cube.&lt;/li&gt;&lt;/ul&gt;" style="text;html=1;whiteSpace=wrap;overflow=hidden;rounded=0;labelBackgroundColor=none;fontColor=light-dark(#000000, #121212);align=left;" vertex="1" parent="1">
          <mxGeometry x="136" y="84" width="364" height="89" as="geometry" />
        </mxCell>
      </root>
    </mxGraphModel>
  </diagram>
</mxfile>
